<svg width="12" height="10" viewBox="0 0 12 10" fill="none" xmlns="http://www.w3.org/2000/svg">
<path fill-rule="evenodd" clip-rule="evenodd" d="M6.65559 1.44505C7.13297 0.967657 7.78045 0.699463 8.45559 0.699463C9.13072 0.699463 9.7782 0.967657 10.2556 1.44505C10.733 1.92244 11.0012 2.56992 11.0012 3.24505C11.0012 3.92018 10.733 4.56766 10.2556 5.04505L9.60059 5.70005L6.00059 9.30004L2.40058 5.70005L1.74558 5.04505C1.26819 4.56766 1 3.92018 1 3.24505C1 2.56992 1.26819 1.92244 1.74558 1.44505C2.22297 0.967657 2.87045 0.699463 3.54558 0.699463C4.22072 0.699463 4.86819 0.967657 5.34558 1.44505L6.00059 2.10005L6.65559 1.44505Z" stroke="#E6704B" stroke-linecap="round" stroke-linejoin="bevel"/>
</svg>
